<mxfile host="Electron" modified="2024-07-20T16:12:37.834Z" agent="Mozilla/5.0 (X11; Linux x86_64) AppleWebKit/537.36 (KHTML, like Gecko) draw.io/24.6.4 Chrome/124.0.6367.207 Electron/30.0.6 Safari/537.36" etag="9eqX46wCEjqaaZRMHLKb" version="24.6.4" type="device">
  <diagram name="Page-1" id="-c2MzmFytgsg6kILU01m">
    <mxGraphModel dx="1368" dy="838" grid="1" gridSize="10" guides="1" tooltips="1" connect="1" arrows="1" fold="1" page="1" pageScale="1" pageWidth="850" pageHeight="1100" math="0" shadow="0">
      <root>
        <mxCell id="0" />
        <mxCell id="1" parent="0" />
        <mxCell id="E9Z_MPhw0MVMEjjNFLQZ-1" value="" style="shape=datastore;whiteSpace=wrap;html=1;" vertex="1" parent="1">
          <mxGeometry x="110" y="70" width="60" height="70" as="geometry" />
        </mxCell>
        <mxCell id="E9Z_MPhw0MVMEjjNFLQZ-2" value="Users" style="text;strokeColor=none;fillColor=none;html=1;fontSize=24;fontStyle=1;verticalAlign=middle;align=center;" vertex="1" parent="1">
          <mxGeometry x="90" y="20" width="100" height="40" as="geometry" />
        </mxCell>
        <mxCell id="E9Z_MPhw0MVMEjjNFLQZ-3" value="" style="endArrow=none;html=1;rounded=0;" edge="1" parent="1">
          <mxGeometry width="50" height="50" relative="1" as="geometry">
            <mxPoint x="80" y="220" as="sourcePoint" />
            <mxPoint x="120" y="140" as="targetPoint" />
          </mxGeometry>
        </mxCell>
        <mxCell id="E9Z_MPhw0MVMEjjNFLQZ-4" value="" style="endArrow=none;html=1;rounded=0;entryX=0.85;entryY=0.95;entryDx=0;entryDy=0;entryPerimeter=0;" edge="1" parent="1">
          <mxGeometry width="50" height="50" relative="1" as="geometry">
            <mxPoint x="179" y="463.5" as="sourcePoint" />
            <mxPoint x="140" y="390" as="targetPoint" />
          </mxGeometry>
        </mxCell>
        <mxCell id="E9Z_MPhw0MVMEjjNFLQZ-5" value="&lt;div&gt;userUid&lt;/div&gt;gameUid&lt;div&gt;publicUid&lt;/div&gt;&lt;div&gt;createdAt&lt;/div&gt;&lt;div&gt;name&lt;/div&gt;&lt;div&gt;&lt;br&gt;&lt;/div&gt;" style="rounded=0;whiteSpace=wrap;html=1;" vertex="1" parent="1">
          <mxGeometry x="20" y="220" width="120" height="170" as="geometry" />
        </mxCell>
        <mxCell id="E9Z_MPhw0MVMEjjNFLQZ-7" value="&lt;div&gt;&lt;/div&gt;&lt;div&gt;publicUid&lt;/div&gt;&lt;div&gt;createdAt&lt;/div&gt;&lt;div&gt;name&lt;/div&gt;&lt;div&gt;&lt;br&gt;&lt;/div&gt;" style="rounded=0;whiteSpace=wrap;html=1;" vertex="1" parent="1">
          <mxGeometry x="150" y="465" width="120" height="170" as="geometry" />
        </mxCell>
      </root>
    </mxGraphModel>
  </diagram>
</mxfile>
